# xmcd CD database file
#
# Track frame offsets:
#	150
#	30727
#	61387
#	89058
#	116630
#	130822
#	148825
#	175050
#	234177
#	244306
#
# Disc length: 3501 seconds
#
# Revision: 1
# Processed by: cddbd v1.5.2PL0 Copyright (c) Steve Scherf et al.
# Submitted via: CDex 1.70beta2
#
DISCID=8c0dab0a
DTITLE=Marianne Trudel Septet - Espoir et Autres Pouvoirs
DYEAR=2011
DGENRE=Jazz
TTITLE0=Et La Terre Tourne...
TTITLE1=Souffle
TTITLE2=Ame Mystere
TTITLE3=Le Passe Est A Venir
TTITLE4=Rires Sur La Greve
TTITLE5=Hantise, Mon Coeur est un Village Fantome
TTITLE6=Espoir et Autres Pouvoirs
TTITLE7=M (Trio-Live)
TTITLE8=Sables Emouvants
TTITLE9=Ensemble
EXTD=YEAR: 2011
EXTT0=
EXTT1=
EXTT2=
EXTT3=
EXTT4=
EXTT5=
EXTT6=
EXTT7=
EXTT8=
EXTT9=
PLAYORDER=
